
<svg xmlns="http://www.w3.org/2000/svg" version="1.1" xmlns:xlink="http://www.w3.org/1999/xlink" preserveAspectRatio="none" x="0px" y="0px" viewBox="60 60 280 280">
<defs>
<g id="Symbol_4_0_Layer0_0_FILL">
<path fill="#FFFFFF" stroke="none" d="
M 242.6 166.4
L 242.6 158 204.1 158 204.1 166.4 217.7 166.4 217.7 201.6 228.95 201.6 228.95 166.4 242.6 166.4
M 186.05 158
L 173.1 158 157 201.6 168.35 201.6 171.4 192.8 187.55 192.8 190.55 201.6 202.2 201.6 186.05 158
M 184.8 184.8
L 174.1 184.8 179.45 169.15 184.8 184.8
M 154.15 166.4
L 154.15 158 122.85 158 122.85 201.6 134.05 201.6 134.05 182.95 152.65 182.95 152.65 174.55 134.05 174.55 134.05 166.4 154.15 166.4
M 75.3 163.2
Q 69.3 169.3 69.3 179.8 69.3 190.25 75.3 196.4 81.25 202.5 91.8 202.5 102.35 202.5 108.3 196.4 114.3 190.25 114.3 179.8 114.3 169.3 108.3 163.2 102.3 157.05 91.8 157.05 81.25 157.05 75.3 163.2
M 81.95 173.1
Q 82.85 170.2 84.3 168.6 85.9 166.8 87.8 166.05 89.7 165.3 91.8 165.3 93.95 165.3 95.9 166.1 97.8 166.9 99.3 168.65 100.8 170.35 101.7 173.1 102.6 175.85 102.6 179.75 102.6 183.45 101.8 186.15 101 188.85 99.4 190.85 97.9 192.6 95.95 193.45 94 194.3 91.8 194.3 89.65 194.3 87.7 193.45 85.7 192.65 84.25 190.9 82.8 189.2 81.9 186.45 81 183.7 81 179.8 81 176 81.95 173.1
M 65.1 193.15
L 44.85 193.15 44.85 158 33.6 158 33.6 201.6 65.1 201.6 65.1 193.15 Z"/>
</g>

<path id="Symbol_1_0_Layer0_0_1_STROKES" stroke="#FFFFFF" stroke-width="4" stroke-linejoin="round" stroke-linecap="round" fill="none" d="
M 0 30.45
L 262 30.45 262 -18.45 0 -18.45 0 30.45 Z"/>

<path id="Symbol_2_0_Layer0_0_1_STROKES" stroke="#FFFFFF" stroke-width="4" stroke-linejoin="round" stroke-linecap="round" fill="none" d="
M 0 0
L 262 0 262 147.7
Q 261.8 155.6 256.2 161.15 250.65 166.75 242.75 166.95
L 19.25 166.95
Q 11.35 166.75 5.75 161.15 0.2 155.6 0 147.7
L 0 0 Z"/>

<path id="Symbol_3_0_Layer0_0_1_STROKES" stroke="#FFFFFF" stroke-width="4" stroke-linejoin="round" stroke-linecap="round" fill="none" d="
M 0 0
L 0 46 55.25 46 55.25 20.75 18.5 0 0 0 Z"/>

<path id="Symbol_3_0_Layer0_0_2_STROKES" stroke="#FFFFFF" stroke-width="2" stroke-linejoin="round" stroke-linecap="round" fill="none" d="
M 48.65 38.25
Q 48.65 39.45 47.8 40.3 46.95 41.15 45.75 41.15 44.55 41.15 43.7 40.3 42.85 39.45 42.85 38.25 42.85 37.05 43.7 36.2 44.55 35.35 45.75 35.35 46.95 35.35 47.8 36.2 48.65 37.05 48.65 38.25 Z
M 13.55 7.85
Q 13.55 9.05 12.7 9.9 11.85 10.75 10.65 10.75 9.45 10.75 8.6 9.9 7.75 9.05 7.75 7.85 7.75 6.65 8.6 5.8 9.45 4.95 10.65 4.95 11.85 4.95 12.7 5.8 13.55 6.65 13.55 7.85 Z
M 13.55 38.25
Q 13.55 39.45 12.7 40.3 11.85 41.15 10.65 41.15 9.45 41.15 8.6 40.3 7.75 39.45 7.75 38.25 7.75 37.05 8.6 36.2 9.45 35.35 10.65 35.35 11.85 35.35 12.7 36.2 13.55 37.05 13.55 38.25 Z"/>
</defs>

<g transform="matrix( 1, 0, 0, 1, 66.5,69.4) ">
<g transform="matrix( 1, 0, 0, 1, 0,0) ">
<use xlink:href="#Symbol_4_0_Layer0_0_FILL"/>
</g>

<g transform="matrix( 0.9884490966796875, -0.15155029296875, 0.15155029296875, 0.9884490966796875, 2.8,57.95) ">
<g transform="matrix( 1, 0, 0, 1, 0,0) ">
<use xlink:href="#Symbol_1_0_Layer0_0_1_STROKES"/>
</g>
</g>

<g transform="matrix( 1, 0, 0, 1, 5,94.3) ">
<g transform="matrix( 1, 0, 0, 1, 0,0) ">
<use xlink:href="#Symbol_2_0_Layer0_0_1_STROKES"/>
</g>
</g>

<g transform="matrix( 1, 0, 0, 1, 10.25,62.75) ">
<g transform="matrix( 1, 0, 0, 1, 0,0) ">
<use xlink:href="#Symbol_3_0_Layer0_0_1_STROKES"/>

<use xlink:href="#Symbol_3_0_Layer0_0_2_STROKES"/>
</g>
</g>
</g>
</svg>
